<?xml version="1.0" encoding="UTF-8"?>
<svg width="24" height="24" viewBox="0 0 24 24" fill="none" xmlns="http://www.w3.org/2000/svg">
  <path d="M13 3C9.23 3 6.19 5.95 6 9.66L4.8 12.6C4.3 13.84 5.18 15.14 6.5 15.14H9V16.5C9 17.33 9.67 18 10.5 18H13.5C14.33 18 15 17.33 15 16.5V15.14H17.5C18.82 15.14 19.7 13.84 19.2 12.6L18 9.66C17.81 5.95 14.77 3 13 3ZM12 6C12.55 6 13 6.45 13 7S12.55 8 12 8 11 7.55 11 7 11.45 6 12 6ZM12 12C10.34 12 9 10.66 9 9H15C15 10.66 13.66 12 12 12Z" fill="white"/>
  <circle cx="19" cy="6" r="2" fill="orange"/>
  <circle cx="5" cy="6" r="2" fill="green"/>
  <circle cx="19" cy="18" r="2" fill="red"/>
  <circle cx="5" cy="18" r="2" fill="blue"/>
</svg>
